# xmcd CD database file
#
# Track frame offsets:
#	150
#	25510
#	47272
#	70835
#	92785
#	114350
#	133002
#	152705
#	174712
#	195182
#	218585
#	241972
#	266045
#	285957
#
# Disc length: 4118 seconds
#
# Revision: 5
# Processed by: cddbd v1.5PL3 Copyright (c) Steve Scherf et al.
# Submitted via: CDex 1.51
#
DISCID=b110140e
DTITLE=サザンオールスターズ - BALLAD 3 〜the album of LOVE〜 DISC2
DYEAR=2000
DGENRE=Japanese Pop
TTITLE0=愛の言霊 〜Spirtual Message〜
TTITLE1=BLUE HEAVEN
TTITLE2=あなただけを 〜Summer Heartbreak〜
TTITLE3=MOON LIGHT LOVER
TTITLE4=愛無き愛児 〜Before The Storm〜
TTITLE5=心を込めて花束を
TTITLE6=唐人物語
TTITLE7=SAUDADE 〜真冬の蜃気楼〜
TTITLE8=湘南SEPTEMBER
TTITLE9=TSUNAMI
TTITLE10=夏の日のドラマ
TTITLE11=LOVE AFFAIR 〜秘密のデート〜
TTITLE12=SEA SIDE WOMAN BLUES
TTITLE13=素敵な夢を叶えましょう
EXTD=YEAR: 2000
EXTT0=
EXTT1=
EXTT2=
EXTT3=
EXTT4=
EXTT5=
EXTT6=
EXTT7=
EXTT8=
EXTT9=
EXTT10=
EXTT11=
EXTT12=
EXTT13=
PLAYORDER=
